PathFileType	4	(X/Y/Z)	C:\Users\WrightLab\Desktop\Jo\P1_boxCal34.trc
DataRate	CameraRate	NumFrames	NumMarkers	Units	OrigDataRate	OrigDataStartFrame	OrigNumFrames
100.00	100.00	       13	19	mm	100.00	205	       544
Frame#	Time	Headset_Front			Headset_Back			Headset_Left			Headset_Right			Left_Shoulder			Right_Shoulder			Sternum			C7			Left Elbow			Right Elbow			Left Wrist			Right Wrist			Left ASIS			Right ASIS			S2			Left Knee			Right Knee			Left Ankle			Right Ankle			
		X1	Y1	Z1	X2	Y2	Z2	X3	Y3	Z3	X4	Y4	Z4	X5	Y5	Z5	X6	Y6	Z6	X7	Y7	Z7	X8	Y8	Z8	X9	Y9	Z9	X10	Y10	Z10	X11	Y11	Z11	X12	Y12	Z12	X13	Y13	Z13	X14	Y14	Z14	X15	Y15	Z15	X16	Y16	Z16	X17	Y17	Z17	X18	Y18	Z18	X19	Y19	Z19	

205	2.040	-650.90515	1380.43848	225.58359	-756.79938	1506.13501	-31.40305	-615.36194	1434.35657	27.58613	-786.31964	1428.00244	175.65437	-584.04578	1269.16675	-76.38078	-920.59900	1263.32935	107.33151	-708.02911	1162.56580	133.01836	-796.84277	1274.33313	-87.72971	-543.02277	956.40088	-175.21902	-1039.79541	1003.63232	110.11281	-447.98050	765.19385	-111.33231	-1073.80676	780.19513	217.42511	-616.61377	885.95764	107.03941	-811.28320	880.39423	158.50430	-795.98273	885.93536	-173.77602	-547.16473	489.69568	104.34812	-926.55646	443.52921	53.08264				-621.69598	117.07383	57.21435	
206	2.050	-646.72192	1379.27893	234.33871	-754.86365	1505.43884	-22.16782	-612.86560	1433.88037	36.06988	-782.95728	1427.61267	184.76707	-582.87384	1267.71619	-68.88200	-917.23883	1262.42297	118.97951	-704.73492	1160.80420	144.06294	-795.73157	1273.94690	-77.99174	-543.02472	955.09070	-169.60808	-1037.56641	1002.98444	123.70753	-447.73526	763.88495	-108.95462	-1068.43433	778.80756	232.74080	-615.47205	883.62195	114.63516	-810.06384	879.09692	166.92915	-794.63446	885.57306	-166.90051	-546.42303	489.49625	112.46056	-923.59052	442.82480	58.38977	-705.58093	62.94716	99.71239	-611.99274	109.79666	85.80640	
207	2.060	-642.87787	1378.04541	242.31210	-752.55615	1505.00293	-13.35176	-610.50903	1433.41504	44.57225	-779.76044	1426.01111	194.46884	-580.92102	1266.48706	-60.48621	-914.21667	1260.88245	129.40985	-701.33368	1159.58008	152.42494	-794.22614	1273.07288	-68.28923	-543.83472	954.36963	-162.01115	-1035.01355	1002.26239	137.26944	-446.83539	762.68292	-106.04922	-1063.79321	779.14673	247.84244	-613.77460	882.27588	123.09361	-808.33563	876.72180	174.03107	-793.85889	885.76752	-159.58186	-547.13599	487.74890	120.24599	-920.87872	441.42194	64.01647	-678.05243	98.43787	196.78474	-601.93781	104.15882	114.59402	
208	2.070	-639.15210	1377.13403	250.32875	-750.36218	1503.93018	-3.82328	-608.19604	1432.39563	53.63181	-776.34283	1424.80664	203.61938	-579.39746	1265.02185	-53.06485	-910.64545	1259.94775	141.25008	-698.47247	1159.08203	163.99094	-792.35815	1272.68701	-58.91453	-543.65668	953.12878	-156.83344	-1032.06226	1001.16571	150.55994	-446.06250	761.35760	-102.36906	-1058.90515	778.90619	262.95978	-611.71283	880.33466	130.19781	-805.76508	875.23413	184.70074	-792.25128	885.39868	-150.68063	-546.76086	485.60995	127.34788	-919.68909	440.43646	68.59335	-648.88568	90.05558	242.68626	-592.32391	98.67730	145.68739	
209	2.080	-635.72571	1376.80579	259.17648	-747.76221	1503.28186	4.79876	-605.05939	1432.14978	61.45627	-772.34344	1424.23303	212.58299	-576.90533	1263.22156	-44.80503	-906.54022	1258.76746	151.91365	-694.52155	1157.36035	170.14154	-790.13391	1271.57874	-48.77689	-542.78644	951.66663	-149.64839	-1028.57690	1000.36786	163.95883	-444.81183	759.98187	-100.11620	-1053.63770	777.61755	277.55789	-608.68738	878.30731	138.26695	-803.74030	873.34436	193.61139	-790.48584	885.74500	-144.19946	-547.17157	483.42389	134.32877	-919.34479	440.06363	73.63493	-638.02386	91.08637	270.55298	-581.33545	95.74971	173.18610	
210	2.090	-631.96857	1376.33997	267.29337	-745.17114	1501.98523	13.70193	-602.04169	1431.28687	68.18412	-768.96057	1423.59387	221.10347	-574.33850	1261.12463	-35.82717	-902.80670	1257.39355	162.93570	-691.13470	1153.88330	178.43047	-787.52252	1270.89880	-39.60371	-542.80933	950.39386	-142.14336	-1024.69446	999.21259	177.70595	-443.45825	758.80316	-96.46552	-1048.39136	777.15851	292.15518	-606.16260	876.28516	146.86334	-801.55243	871.79150	201.54279	-788.41418	885.13397	-135.04417	-546.76703	480.87314	140.89896	-917.89441	438.54886	79.95039	-627.38788	91.66193	295.05899	-568.25140	94.78876	202.48732	
211	2.100	-627.13892	1375.91101	275.34149	-742.34576	1500.82043	21.89456	-598.80670	1430.17627	76.38451	-765.52332	1423.19885	229.37201	-571.49255	1259.60486	-27.36083	-898.38171	1256.00867	173.12190	-686.64423	1151.73828	188.13626	-784.53687	1269.74487	-29.13280	-542.26898	948.42535	-134.90431	-1020.74542	998.04907	190.22238	-443.02209	756.62927	-92.13789	-1042.37842	776.35504	306.13678	-604.60577	873.15576	154.55614	-799.45074	868.71655	209.32925	-785.37445	884.52356	-126.52698	-545.15039	477.57913	146.75198	-916.37427	437.14145	85.27871	-257.57803	232.62523	47.99513	-557.36938	96.85461	227.50308	
212	2.110	-624.06573	1376.63623	283.85852	-739.35980	1499.32910	29.09146	-595.90375	1429.19324	84.33041	-761.05371	1422.54443	238.02765	-567.93591	1257.61584	-18.40150	-894.46460	1254.49939	182.98528	-683.52942	1149.06665	196.59128	-781.07880	1268.80896	-19.87891	-542.40790	947.32727	-126.53928	-1015.90857	996.66833	202.55400	-441.52649	755.31097	-87.99337	-1036.34802	775.52600	320.23694	-601.37463	870.82123	164.73810	-796.63818	866.74536	218.29457	-782.70868	884.29407	-117.82487	-543.42725	473.64734	154.20244	-914.41541	435.86139	90.99373	-608.01495	101.29393	344.58875	-547.18762	101.47678	249.83766	
213	2.120	-618.05731	1375.69653	290.99872	-736.13641	1497.78052	37.26086	-591.80371	1428.73645	91.80716	-755.73560	1421.45959	247.71825	-564.52277	1255.93762	-9.91579	-889.86237	1253.21729	192.78581	-679.57776	1148.38440	207.60741	-777.52130	1267.96851	-9.93861	-540.24237	946.37201	-120.82819	-1010.14270	995.11517	215.04294	-440.51764	754.11078	-84.11327	-1030.41284	775.30035	333.46674	-597.97363	868.80585	173.73880	-792.59839	865.60730	230.91246	-779.15521	882.85229	-108.11797	-542.01038	469.68884	160.60304	-912.73102	434.33676	96.22242	-597.91467	107.66945	367.69666	-537.58777	106.86122	270.61285	
214	2.130	-613.29077	1375.90894	299.27496	-732.76636	1496.30872	44.90215	-587.86627	1427.78748	99.51132	-751.12805	1420.92249	255.93225	-560.67206	1254.43774	-1.35905	-885.51593	1251.74402	202.64368	-676.20587	1147.49695	218.96330	-773.47217	1266.50708	-1.26676	-539.03033	944.79578	-113.01044	-1004.56818	993.72186	227.14647	-438.86444	752.68823	-80.09900	-1023.26941	774.23804	348.85809	-594.25928	866.92303	183.22517	-789.54419	864.25262	240.22899	-775.94159	882.42383	-99.41814	-539.03162	468.14301	170.38658	-910.14575	432.90387	101.60469	-586.37714	116.18266	396.19937	-528.71857	112.20704	288.87146	
215	2.140	-608.53107	1376.42432	306.92761	-729.21698	1494.65906	52.45707	-583.80750	1427.54919	105.46046	-746.77814	1420.56213	264.04758	-556.20135	1252.70398	8.28680	-880.90845	1250.70227	211.57278	-670.95972	1146.95313	225.09633	-769.26801	1265.57910	8.03155	-537.44214	943.20007	-104.92055	-998.36023	992.38464	238.71135	-437.39935	751.02332	-75.08118	-1016.70984	774.30487	361.63455	-591.62189	864.71753	192.99448	-785.65552	862.57593	249.45622	-771.74072	880.95331	-89.08444	-535.82324	466.26395	178.93730	-907.74738	432.35352	106.38119	-576.46722	120.00307	412.56760	-520.81635	117.83731	304.99677	
216	2.150	-604.34680	1377.42517	315.25092	-725.30768	1493.11450	60.14877	-579.79529	1426.83386	114.14022	-741.88074	1420.43335	271.74869	-551.28107	1251.43652	17.51785	-876.18292	1249.34717	220.40198	-669.52094	1144.42163	236.73941	-764.53339	1264.62292	16.77700	-534.89722	942.50684	-96.96276	-992.12927	991.09265	249.78963	-435.72217	749.24988	-69.98606	-1008.28772	773.28424	374.54922	-588.79962	863.34839	203.66528	-782.34247	862.14014	259.22116	-767.59888	880.08228	-79.07699	-532.24103	464.76349	188.26292	-905.07825	431.74741	111.44724	-587.93579	121.51965	411.40759	-514.28912	121.76837	319.76376	
217	2.160	-598.56427	1377.93542	322.81537	-721.17407	1491.76453	67.82607	-574.96222	1425.94556	122.24524	-737.43347	1420.66235	280.05484	-545.98102	1250.46338	26.05791	-871.33160	1249.01563	229.03867	-663.64972	1143.33191	245.01622	-759.61523	1263.50403	25.67488	-532.92377	941.80945	-88.95583	-984.71057	989.58984	260.86301	-434.40860	748.18695	-64.15187	-1001.39447	774.02209	386.91153	-583.39142	862.39929	213.08104	-778.71265	861.89825	269.63599	-763.26514	878.61108	-68.77623	-528.48993	463.64346	199.15201	-902.37756	431.53894	117.21140	-580.77008	123.30350	424.39786	-508.36847	124.46764	333.61234	
